<svg xmlns="http://www.w3.org/2000/svg" width="700" height="638" fill="none"><g stroke="#171717" stroke-width="3" clip-path="url(#a)"><path d="m-25.055 548.134 20.157-11.601 20.156 11.601v23.195l-20.156 11.602-20.157-11.602v-23.195ZM16.263 548.134l20.156-11.601 20.157 11.601v23.195l-20.157 11.602-20.156-11.602v-23.195ZM57.584 548.134l20.156-11.601 20.156 11.601v23.195L77.74 582.931l-20.156-11.602v-23.195ZM-4.734 583.828l20.156-11.601 20.156 11.601v23.196l-20.156 11.601-20.156-11.601v-23.196ZM36.584 583.828l20.156-11.601 20.156 11.601v23.196L56.74 618.625l-20.156-11.601v-23.196ZM77.904 583.828l20.156-11.601 20.156 11.601v23.196L98.06 618.625l-20.156-11.601v-23.196ZM-25.25 619.515l20.156-11.601 20.156 11.601v23.196l-20.156 11.601-20.157-11.601v-23.196ZM16.07 619.515l20.156-11.601 20.156 11.601v23.196l-20.156 11.601-20.156-11.601v-23.196ZM57.388 619.515l20.156-11.601 20.157 11.601v23.196l-20.157 11.601-20.156-11.601v-23.196ZM98.708 619.515l20.156-11.601 20.157 11.601v23.196l-20.157 11.601-20.156-11.601v-23.196ZM-4.343 441.06l20.156-11.602L35.97 441.06v23.195l-20.157 11.601-20.156-11.601V441.06ZM-25.344 476.754l20.157-11.602 20.156 11.602v23.195l-20.156 11.602-20.157-11.602v-23.195ZM15.977 476.754l20.156-11.602 20.156 11.602v23.195l-20.156 11.602-20.156-11.602v-23.195ZM-4.54 512.441l20.157-11.601 20.156 11.601v23.195l-20.156 11.601-20.157-11.601v-23.195ZM36.781 512.441l20.156-11.601 20.157 11.601v23.195l-20.157 11.601-20.156-11.601v-23.195ZM-4.734 298.29l20.157-11.601 20.156 11.601v23.196l-20.157 11.601-20.156-11.601V298.29ZM36.584 298.29l20.156-11.601 20.156 11.601v23.196L56.74 333.087l-20.156-11.601V298.29ZM77.905 298.29l20.156-11.601 20.156 11.601v23.196l-20.156 11.601-20.156-11.601V298.29ZM-25.734 333.984l20.156-11.601 20.156 11.601v23.195l-20.156 11.602-20.156-11.602v-23.195ZM15.586 333.984l20.156-11.601L55.9 333.984v23.195l-20.157 11.602-20.156-11.602v-23.195ZM56.904 333.984l20.156-11.601 20.156 11.601v23.195L77.06 368.781l-20.156-11.602v-23.195ZM98.225 333.984l20.156-11.601 20.156 11.601v23.195l-20.156 11.602-20.156-11.602v-23.195ZM-4.93 369.678l20.156-11.601 20.156 11.601v23.196l-20.156 11.601-20.156-11.601v-23.196ZM36.39 369.678l20.156-11.601 20.156 11.601v23.196l-20.156 11.601-20.156-11.601v-23.196ZM77.708 369.678l20.156-11.601 20.157 11.601v23.196l-20.157 11.601-20.156-11.601v-23.196ZM119.029 369.678l20.156-11.601 20.156 11.601v23.196l-20.156 11.601-20.156-11.601v-23.196ZM-25.63 405.366l20.156-11.602 20.156 11.602v23.195l-20.156 11.602-20.156-11.602v-23.195ZM-25.344 191.216l20.156-11.602 20.157 11.602v23.195l-20.157 11.601-20.156-11.601v-23.195ZM15.977 191.216l20.156-11.602 20.156 11.602v23.195l-20.156 11.601-20.156-11.601v-23.195ZM-5.024 226.91l20.156-11.602L35.29 226.91v23.195l-20.157 11.601-20.156-11.601V226.91ZM36.297 226.91l20.156-11.602 20.156 11.602v23.195l-20.156 11.601-20.156-11.601V226.91ZM-25.538 262.604l20.156-11.602 20.157 11.602v23.195L-5.382 297.4l-20.156-11.601v-23.195ZM15.78 262.604l20.156-11.602 20.157 11.602v23.195L35.936 297.4 15.78 285.799v-23.195ZM57.1 262.604l20.157-11.602 20.156 11.602v23.195L77.257 297.4 57.1 285.799v-23.195ZM139.729 619.515l20.157-11.601 20.156 11.601v23.196l-20.156 11.601-20.157-11.601v-23.196ZM181.049 619.515l20.157-11.601 20.156 11.601v23.196l-20.156 11.601-20.157-11.601v-23.196ZM222.367 619.515l20.157-11.601 20.156 11.601v23.196l-20.156 11.601-20.157-11.601v-23.196ZM263.688 619.515l20.156-11.601 20.157 11.601v23.196l-20.157 11.601-20.156-11.601v-23.196ZM221.976 476.754l20.156-11.601 20.156 11.601v23.195l-20.156 11.602-20.156-11.602v-23.195ZM263.296 476.754l20.156-11.601 20.157 11.601v23.195l-20.157 11.602-20.156-11.602v-23.195ZM304.614 476.754l20.157-11.601 20.156 11.601v23.195l-20.156 11.602-20.157-11.602v-23.195ZM345.934 476.754l20.157-11.601 20.156 11.601v23.195l-20.156 11.602-20.157-11.602v-23.195ZM242.296 512.441l20.156-11.601 20.156 11.601v23.196l-20.156 11.601-20.156-11.601v-23.196ZM283.616 512.441l20.157-11.601 20.156 11.601v23.196l-20.156 11.601-20.157-11.601v-23.196ZM324.934 512.441l20.156-11.601 20.156 11.601v23.196l-20.156 11.601-20.156-11.601v-23.196ZM366.252 512.441l20.156-11.601 20.156 11.601v23.196l-20.156 11.601-20.156-11.601v-23.196ZM263.1 548.135l20.156-11.601 20.156 11.601v23.195l-20.156 11.602L263.1 571.33v-23.195ZM304.42 548.135l20.156-11.601 20.156 11.601v23.195l-20.156 11.602-20.156-11.602v-23.195ZM345.738 548.135l20.156-11.601 20.157 11.601v23.195l-20.157 11.602-20.156-11.602v-23.195ZM387.056 548.135l20.156-11.601 20.156 11.601v23.195l-20.156 11.602-20.156-11.602v-23.195ZM77.316 512.442l20.156-11.602 20.157 11.602v23.195l-20.157 11.601-20.156-11.601v-23.195ZM118.637 512.442l20.156-11.602 20.156 11.602v23.195l-20.156 11.601-20.156-11.601v-23.195ZM159.954 512.442l20.157-11.602 20.156 11.602v23.195l-20.156 11.601-20.157-11.601v-23.195ZM201.275 512.442l20.156-11.602 20.156 11.602v23.195l-20.156 11.601-20.156-11.601v-23.195Z"/><path d="m97.637 548.135 20.156-11.601 20.157 11.601v23.195l-20.157 11.602-20.156-11.602v-23.195ZM138.957 548.135l20.156-11.601 20.157 11.601v23.195l-20.157 11.602-20.156-11.602v-23.195ZM180.275 548.135l20.156-11.601 20.157 11.601v23.195l-20.157 11.602-20.156-11.602v-23.195ZM221.596 548.135l20.156-11.601 20.156 11.601v23.195l-20.156 11.602-20.156-11.602v-23.195ZM118.441 583.829l20.156-11.601 20.156 11.601v23.196l-20.156 11.601-20.156-11.601v-23.196ZM159.761 583.829l20.156-11.601 20.157 11.601v23.196l-20.157 11.601-20.156-11.601v-23.196ZM201.079 583.829l20.156-11.601 20.157 11.601v23.196l-20.157 11.601-20.156-11.601v-23.196ZM242.4 583.829l20.155-11.601 20.157 11.601v23.196l-20.157 11.601-20.155-11.601v-23.196ZM160.049 369.679l20.156-11.601 20.156 11.601v23.196l-20.156 11.601-20.156-11.601v-23.196ZM201.369 369.679l20.157-11.601 20.156 11.601v23.196l-20.156 11.601-20.157-11.601v-23.196ZM242.688 369.679l20.156-11.601L283 369.679v23.196l-20.156 11.601-20.156-11.601v-23.196ZM284.007 369.679l20.157-11.601 20.156 11.601v23.196l-20.156 11.601-20.157-11.601v-23.196ZM180.369 405.366l20.157-11.601 20.156 11.601v23.195l-20.156 11.602-20.157-11.602v-23.195ZM221.69 405.366l20.156-11.601 20.157 11.601v23.195l-20.157 11.602-20.156-11.602v-23.195ZM263.007 405.366l20.157-11.601 20.156 11.601v23.195l-20.156 11.602-20.157-11.602v-23.195ZM304.328 405.366l20.157-11.601 20.156 11.601v23.195l-20.156 11.602-20.157-11.602v-23.195ZM201.173 441.06l20.156-11.601 20.156 11.601v23.195l-20.156 11.601-20.156-11.601V441.06ZM242.493 441.06l20.156-11.601 20.156 11.601v23.195l-20.156 11.601-20.156-11.601V441.06ZM283.811 441.06l20.156-11.601 20.156 11.601v23.195l-20.156 11.601-20.156-11.601V441.06ZM325.132 441.06l20.156-11.601 20.156 11.601v23.195l-20.156 11.601-20.156-11.601V441.06ZM15.39 405.366l20.157-11.601 20.156 11.601v23.195l-20.156 11.602-20.157-11.602v-23.195ZM56.71 405.366l20.157-11.601 20.156 11.601v23.195l-20.156 11.602-20.156-11.602v-23.195ZM98.029 405.366l20.156-11.601 20.156 11.601v23.195l-20.156 11.602-20.156-11.602v-23.195ZM139.349 405.366l20.157-11.601 20.156 11.601v23.195l-20.156 11.602-20.157-11.602v-23.195ZM35.71 441.06l20.157-11.601 20.155 11.601v23.196l-20.156 11.601-20.156-11.601V441.06ZM77.03 441.06l20.157-11.601 20.156 11.601v23.196l-20.156 11.601-20.156-11.601V441.06ZM118.349 441.06l20.156-11.601 20.156 11.601v23.196l-20.156 11.601-20.156-11.601V441.06ZM159.669 441.06l20.156-11.601 20.156 11.601v23.196l-20.156 11.601-20.156-11.601V441.06ZM56.514 476.755l20.156-11.602 20.157 11.602v23.195L76.67 511.551 56.514 499.95v-23.195ZM97.835 476.755l20.156-11.602 20.156 11.602v23.195l-20.156 11.601-20.156-11.601v-23.195ZM139.153 476.755l20.155-11.602 20.157 11.602v23.195l-20.157 11.601-20.155-11.601v-23.195ZM180.473 476.755l20.156-11.602 20.157 11.602v23.195l-20.157 11.601-20.156-11.601v-23.195ZM428.08 548.135l20.156-11.601 20.156 11.601v23.195l-20.156 11.602-20.156-11.602v-23.195ZM469.397 548.135l20.157-11.601 20.156 11.601v23.195l-20.156 11.602-20.157-11.602v-23.195ZM510.72 548.135l20.157-11.601 20.155 11.601v23.195l-20.155 11.602-20.157-11.602v-23.195ZM552.038 548.135l20.156-11.601 20.156 11.601v23.195l-20.156 11.602-20.156-11.602v-23.195ZM448.403 583.829l20.156-11.601 20.156 11.601v23.195l-20.156 11.601-20.156-11.601v-23.195ZM489.72 583.829l20.156-11.601 20.157 11.601v23.195l-20.157 11.601-20.156-11.601v-23.195ZM531.038 583.829l20.156-11.601 20.156 11.601v23.195l-20.156 11.601-20.156-11.601v-23.195ZM572.356 583.829l20.155-11.601 20.157 11.601v23.195l-20.157 11.601-20.155-11.601v-23.195ZM469.206 619.516l20.156-11.601 20.157 11.601v23.195l-20.157 11.601-20.156-11.601v-23.195ZM510.524 619.516l20.156-11.601 20.157 11.601v23.195l-20.157 11.601-20.156-11.601v-23.195ZM551.842 619.516l20.156-11.601 20.156 11.601v23.195l-20.156 11.601-20.156-11.601v-23.195ZM593.159 619.516l20.157-11.601 20.156 11.601v23.195l-20.156 11.601-20.157-11.601v-23.195ZM283.421 583.829l20.156-11.601 20.157 11.601v23.196l-20.157 11.601-20.156-11.601v-23.196ZM324.739 583.829l20.156-11.601 20.156 11.601v23.196l-20.156 11.601-20.156-11.601v-23.196ZM366.062 583.829l20.156-11.601 20.156 11.601v23.196l-20.156 11.601-20.156-11.601v-23.196ZM407.38 583.829l20.156-11.601 20.157 11.601v23.196l-20.157 11.601-20.156-11.601v-23.196ZM303.741 619.516l20.156-11.601 20.156 11.601v23.195l-20.156 11.601-20.156-11.601v-23.195ZM345.061 619.516l20.156-11.601 20.157 11.601v23.195l-20.157 11.601-20.156-11.601v-23.195ZM386.379 619.516l20.156-11.601 20.156 11.601v23.195l-20.156 11.601-20.156-11.601v-23.195ZM427.697 619.516l20.156-11.601 20.156 11.601v23.195l-20.156 11.601-20.156-11.601v-23.195Z"/></g><defs><clipPath id="a"><path fill="#fff" d="M0 0h700v637.225H0z"/></clipPath></defs></svg>
