<svg xmlns="http://www.w3.org/2000/svg" width="700" height="638" fill="none"><g stroke="#171717" stroke-width="3" clip-path="url(#a)"><path d="m725.055 89.091-20.157 11.601-20.156-11.6V65.895l20.156-11.602 20.157 11.602v23.195ZM683.737 89.091l-20.156 11.601-20.157-11.6V65.895l20.157-11.602 20.156 11.602v23.195ZM642.416 89.091l-20.156 11.601-20.156-11.601V65.896l20.156-11.602 20.156 11.602v23.195ZM704.734 53.397l-20.156 11.601-20.156-11.6V30.2l20.156-11.6 20.156 11.6v23.196ZM663.416 53.397 643.26 64.998l-20.156-11.6V30.2l20.156-11.6 20.156 11.6v23.196ZM622.096 53.397 601.94 64.998l-20.156-11.6V30.2l20.156-11.6 20.156 11.6v23.196ZM725.251 17.71l-20.157 11.601-20.156-11.6V-5.487l20.156-11.6 20.157 11.6V17.71ZM683.93 17.71l-20.156 11.601-20.156-11.6V-5.487l20.156-11.6 20.156 11.6V17.71ZM642.612 17.71l-20.156 11.601-20.156-11.6V-5.487l20.156-11.6 20.156 11.6V17.71ZM601.292 17.71l-20.156 11.601-20.157-11.6V-5.487l20.157-11.6 20.156 11.6V17.71ZM704.343 196.166l-20.156 11.601-20.157-11.601V172.97l20.157-11.601 20.156 11.601v23.196ZM725.344 160.472l-20.157 11.601-20.156-11.601v-23.196l20.156-11.601 20.157 11.601v23.196ZM684.023 160.472l-20.156 11.601-20.156-11.601v-23.196l20.156-11.601 20.156 11.601v23.196ZM704.54 124.784l-20.157 11.602-20.156-11.602v-23.195l20.156-11.601 20.157 11.601v23.195ZM663.219 124.784l-20.156 11.602-20.157-11.602v-23.195l20.157-11.601 20.156 11.601v23.195ZM704.734 338.935l-20.156 11.601-20.157-11.601v-23.196l20.157-11.601 20.156 11.601v23.196ZM663.416 338.935l-20.156 11.601-20.156-11.601v-23.196l20.156-11.601 20.156 11.601v23.196ZM622.095 338.935l-20.156 11.601-20.156-11.601v-23.196l20.156-11.601 20.156 11.601v23.196ZM725.734 303.241l-20.156 11.601-20.156-11.601v-23.195l20.156-11.602 20.156 11.602v23.195ZM684.414 303.241l-20.156 11.601-20.157-11.601v-23.195l20.157-11.602 20.156 11.602v23.195ZM643.096 303.241l-20.156 11.601-20.156-11.601v-23.195l20.156-11.602 20.156 11.602v23.195ZM601.775 303.241l-20.156 11.601-20.156-11.601v-23.195l20.156-11.602 20.156 11.602v23.195ZM704.93 267.547l-20.156 11.601-20.156-11.601v-23.196l20.156-11.601 20.156 11.601v23.196ZM663.61 267.547l-20.156 11.601-20.156-11.601v-23.196l20.156-11.601 20.156 11.601v23.196ZM622.292 267.547l-20.156 11.601-20.157-11.601v-23.196l20.157-11.601 20.156 11.601v23.196ZM580.971 267.547l-20.156 11.601-20.156-11.601v-23.196l20.156-11.601 20.156 11.601v23.196ZM725.63 231.86l-20.156 11.601-20.156-11.601v-23.196l20.156-11.602 20.156 11.602v23.196ZM725.344 446.009l-20.156 11.602-20.157-11.602v-23.195l20.157-11.601 20.156 11.601v23.195ZM684.023 446.009l-20.156 11.602-20.156-11.602v-23.195l20.156-11.601 20.156 11.601v23.195ZM705.024 410.315l-20.156 11.602-20.156-11.602V387.12l20.156-11.601 20.156 11.601v23.195ZM663.703 410.315l-20.156 11.602-20.156-11.602V387.12l20.156-11.601 20.156 11.601v23.195ZM725.538 374.621l-20.156 11.602-20.157-11.602v-23.195l20.157-11.601 20.156 11.601v23.195ZM684.22 374.621l-20.156 11.602-20.156-11.602v-23.195l20.156-11.601 20.156 11.601v23.195ZM642.9 374.621l-20.157 11.602-20.156-11.602v-23.195l20.156-11.601 20.157 11.601v23.195ZM560.271 17.71l-20.156 11.601-20.157-11.6V-5.487l20.157-11.601 20.156 11.601V17.71ZM518.951 17.71l-20.157 11.601-20.156-11.6V-5.487l20.156-11.601 20.157 11.601V17.71ZM477.633 17.71l-20.157 11.601-20.156-11.6V-5.487l20.156-11.601 20.157 11.601V17.71ZM436.312 17.71l-20.156 11.601-20.157-11.6V-5.487l20.157-11.601 20.156 11.601V17.71ZM478.025 160.471l-20.157 11.601-20.156-11.601v-23.195l20.156-11.602 20.157 11.602v23.195ZM436.704 160.471l-20.156 11.601-20.157-11.601v-23.195l20.157-11.602 20.156 11.602v23.195ZM395.386 160.471l-20.157 11.601-20.156-11.601v-23.195l20.156-11.602 20.157 11.602v23.195ZM354.066 160.471l-20.157 11.601-20.156-11.601v-23.195l20.156-11.602 20.157 11.602v23.195ZM457.704 124.784l-20.156 11.601-20.156-11.601v-23.195l20.156-11.602 20.156 11.602v23.195ZM416.384 124.784l-20.157 11.601-20.156-11.601v-23.195l20.156-11.602 20.157 11.602v23.195ZM375.066 124.784l-20.156 11.601-20.156-11.601v-23.195l20.156-11.602 20.156 11.602v23.195ZM333.748 124.784l-20.156 11.601-20.156-11.601v-23.195l20.156-11.602 20.156 11.602v23.195ZM436.9 89.09l-20.156 11.601-20.156-11.601V65.895l20.156-11.602L436.9 65.895V89.09ZM395.58 89.09l-20.156 11.601-20.156-11.601V65.895l20.156-11.602 20.156 11.602V89.09ZM354.262 89.09l-20.156 11.601L313.95 89.09V65.895l20.156-11.602 20.156 11.602V89.09ZM312.944 89.09l-20.156 11.601-20.156-11.601V65.895l20.156-11.602 20.156 11.602V89.09ZM622.684 124.784l-20.156 11.602-20.157-11.602v-23.196l20.157-11.6 20.156 11.601v23.195ZM581.363 124.784l-20.156 11.602-20.156-11.602v-23.196l20.156-11.6 20.156 11.6v23.196ZM540.046 124.784l-20.156 11.602-20.157-11.602v-23.196l20.157-11.6 20.156 11.6v23.196ZM498.725 124.784l-20.156 11.602-20.156-11.602v-23.196l20.156-11.6 20.156 11.6v23.196Z"/><path d="m602.363 89.09-20.156 11.601-20.156-11.601V65.895l20.156-11.602 20.156 11.602V89.09ZM561.043 89.09l-20.156 11.601L520.73 89.09V65.895l20.157-11.602 20.156 11.602V89.09ZM519.725 89.09l-20.156 11.601-20.157-11.601V65.895l20.157-11.602 20.156 11.602V89.09ZM478.404 89.09l-20.156 11.601-20.156-11.601V65.895l20.156-11.602 20.156 11.602V89.09ZM581.559 53.396l-20.156 11.6-20.156-11.6V30.2l20.156-11.602 20.156 11.602v23.195ZM540.239 53.396l-20.156 11.6-20.157-11.6V30.2l20.157-11.602 20.156 11.602v23.195ZM498.921 53.396l-20.156 11.6-20.157-11.6V30.2l20.157-11.602 20.156 11.602v23.195ZM457.6 53.396l-20.155 11.6-20.157-11.6V30.2l20.157-11.602L457.6 30.201v23.195ZM539.951 267.546l-20.156 11.601-20.156-11.601V244.35l20.156-11.601 20.156 11.601v23.196ZM498.631 267.546l-20.157 11.601-20.156-11.601V244.35l20.156-11.601 20.157 11.601v23.196ZM457.313 267.546l-20.157 11.601L417 267.546V244.35l20.156-11.601 20.157 11.601v23.196ZM415.993 267.546l-20.157 11.601-20.156-11.601V244.35l20.156-11.601 20.157 11.601v23.196ZM519.631 231.859l-20.157 11.601-20.156-11.601v-23.195l20.156-11.602 20.157 11.602v23.195ZM478.31 231.859l-20.156 11.601-20.156-11.601v-23.195l20.156-11.602 20.156 11.602v23.195ZM436.993 231.859l-20.157 11.601-20.156-11.601v-23.195l20.156-11.602 20.157 11.602v23.195ZM395.672 231.859l-20.156 11.601-20.157-11.601v-23.195l20.157-11.602 20.156 11.602v23.195ZM498.827 196.165l-20.156 11.601-20.156-11.601V172.97l20.156-11.601 20.156 11.601v23.195ZM457.507 196.165l-20.156 11.601-20.156-11.601V172.97l20.156-11.601 20.156 11.601v23.195ZM416.189 196.165l-20.156 11.601-20.156-11.601V172.97l20.156-11.601 20.156 11.601v23.195ZM374.868 196.165l-20.156 11.601-20.156-11.601V172.97l20.156-11.601 20.156 11.601v23.195ZM684.61 231.859l-20.157 11.601-20.156-11.601v-23.195l20.156-11.602 20.157 11.602v23.195ZM643.289 231.859l-20.156 11.601-20.156-11.601v-23.195l20.156-11.602 20.156 11.602v23.195ZM601.971 231.859l-20.156 11.601-20.156-11.601v-23.195l20.156-11.602 20.156 11.602v23.195ZM560.651 231.859l-20.157 11.601-20.156-11.601v-23.195l20.156-11.602 20.157 11.602v23.195ZM664.29 196.165l-20.156 11.601-20.157-11.601v-23.196l20.157-11.601 20.156 11.601v23.196ZM622.969 196.165l-20.156 11.601-20.156-11.601v-23.196l20.156-11.601 20.156 11.601v23.196ZM581.651 196.165l-20.156 11.601-20.156-11.601v-23.196l20.156-11.601 20.156 11.601v23.196ZM540.331 196.165l-20.156 11.601-20.156-11.601v-23.196l20.156-11.601 20.156 11.601v23.196ZM643.486 160.47l-20.156 11.602-20.157-11.602v-23.195l20.157-11.601 20.156 11.601v23.195ZM602.165 160.47l-20.156 11.602-20.156-11.602v-23.195l20.156-11.601 20.156 11.601v23.195ZM560.847 160.47l-20.155 11.602-20.157-11.602v-23.195l20.157-11.601 20.155 11.601v23.195ZM519.527 160.47l-20.156 11.602-20.157-11.602v-23.195l20.157-11.601 20.156 11.601v23.195ZM271.92 89.09l-20.156 11.602-20.156-11.602V65.895l20.156-11.602 20.156 11.602V89.09ZM230.603 89.09l-20.156 11.602L190.29 89.09V65.895l20.157-11.602 20.156 11.602V89.09ZM189.28 89.09l-20.157 11.602-20.155-11.602V65.895l20.155-11.602 20.157 11.602V89.09ZM147.962 89.09l-20.156 11.602L107.65 89.09V65.895l20.156-11.602 20.156 11.602V89.09ZM251.597 53.396l-20.156 11.602-20.156-11.602V30.201L231.441 18.6 251.597 30.2v23.195ZM210.28 53.396l-20.156 11.602-20.157-11.602V30.201L190.124 18.6 210.28 30.2v23.195ZM168.962 53.396l-20.156 11.602-20.156-11.602V30.201L148.806 18.6 168.962 30.2v23.195ZM127.644 53.396l-20.155 11.602-20.157-11.602V30.201L107.49 18.6 127.644 30.2v23.195ZM230.794 17.71l-20.156 11.6-20.156-11.6V-5.487l20.156-11.601 20.156 11.601V17.71ZM189.476 17.71l-20.156 11.6-20.157-11.6V-5.487l20.157-11.601 20.156 11.601V17.71ZM148.158 17.71l-20.156 11.6-20.156-11.6V-5.487l20.156-11.601 20.156 11.601V17.71ZM106.841 17.71l-20.156 11.6-20.157-11.6V-5.487l20.156-11.601 20.157 11.601V17.71ZM416.579 53.396l-20.156 11.602-20.157-11.602V30.201l20.157-11.602 20.156 11.602v23.195ZM375.261 53.396l-20.156 11.602-20.156-11.602V30.201l20.156-11.602 20.156 11.602v23.195ZM333.938 53.396l-20.156 11.602-20.156-11.602V30.201l20.156-11.602 20.156 11.602v23.195ZM292.62 53.396l-20.156 11.602-20.156-11.602V30.201l20.156-11.602 20.156 11.602v23.195ZM396.26 17.71l-20.157 11.6-20.156-11.6V-5.487l20.156-11.601L396.26-5.486V17.71ZM354.939 17.71l-20.156 11.6-20.157-11.6V-5.487l20.157-11.601 20.156 11.601V17.71ZM313.621 17.71l-20.156 11.6-20.156-11.6V-5.487l20.156-11.601 20.156 11.601V17.71ZM272.303 17.71l-20.156 11.6-20.156-11.6V-5.487l20.156-11.601 20.156 11.601V17.71Z"/></g><defs><clipPath id="a"><path fill="#fff" d="M700 637.225H0V0h700z"/></clipPath></defs></svg>
